<svg xmlns="http://www.w3.org/2000/svg" xmlns:xlink="http://www.w3.org/1999/xlink" width="250" zoomAndPan="magnify" viewBox="0 0 187.5 187.499992" height="250" preserveAspectRatio="xMidYMid meet" version="1.0"><defs><clipPath id="87db091d41"><path d="M 15.585938 26 L 150.648438 26 L 150.648438 161 L 15.585938 161 Z M 15.585938 26 " clip-rule="nonzero"/></clipPath><clipPath id="e06283b474"><path d="M 75.925781 157.800781 L 18.808594 100.714844 C 14.816406 96.726562 14.816406 90.265625 18.808594 86.308594 L 75.925781 29.191406 C 79.914062 25.199219 86.375 25.199219 90.332031 29.191406 L 147.417969 86.308594 C 151.40625 90.296875 151.40625 96.757812 147.417969 100.714844 L 90.332031 157.800781 C 86.34375 161.789062 79.914062 161.789062 75.925781 157.800781 " clip-rule="nonzero"/></clipPath><clipPath id="0d849227fd"><path d="M 0.585938 0 L 135.648438 0 L 135.648438 135 L 0.585938 135 Z M 0.585938 0 " clip-rule="nonzero"/></clipPath><clipPath id="4fb023b041"><path d="M 60.925781 131.800781 L 3.808594 74.714844 C -0.183594 70.726562 -0.183594 64.265625 3.808594 60.308594 L 60.925781 3.191406 C 64.914062 -0.800781 71.375 -0.800781 75.332031 3.191406 L 132.417969 60.308594 C 136.40625 64.296875 136.40625 70.757812 132.417969 74.714844 L 75.332031 131.800781 C 71.34375 135.789062 64.914062 135.789062 60.925781 131.800781 " clip-rule="nonzero"/></clipPath><clipPath id="1e4dbf3031"><rect x="0" width="136" y="0" height="135"/></clipPath><clipPath id="2d11a8ea49"><path d="M 67.53125 93 L 68 93 L 68 95 L 67.53125 95 Z M 67.53125 93 " clip-rule="nonzero"/></clipPath><clipPath id="f4d915034f"><path d="M 67.945312 93.148438 C 67.882812 93.75 68.136719 94.382812 67.757812 94.984375 L 67.757812 93.179688 C 67.820312 93.082031 67.882812 93.082031 67.945312 93.179688 " clip-rule="nonzero"/></clipPath><clipPath id="fbc53fc0cb"><path d="M 0.738281 0 L 1 0 L 1 2 L 0.738281 2 Z M 0.738281 0 " clip-rule="nonzero"/></clipPath><clipPath id="4194f5e664"><path d="M 0.945312 0.148438 C 0.882812 0.75 1.136719 1.382812 0.757812 1.984375 L 0.757812 0.179688 C 0.820312 0.0820312 0.882812 0.0820312 0.945312 0.179688 " clip-rule="nonzero"/></clipPath><clipPath id="e8b00917ac"><rect x="0" width="1" y="0" height="2"/></clipPath><clipPath id="8fe2710b57"><path d="M 67.53125 91.550781 L 68 91.550781 L 68 93.5 L 67.53125 93.5 Z M 67.53125 91.550781 " clip-rule="nonzero"/></clipPath><clipPath id="b484e8ff94"><path d="M 67.945312 93.148438 C 67.882812 93.148438 67.820312 93.148438 67.757812 93.148438 L 67.757812 91.753906 C 68.167969 92.164062 67.882812 92.703125 67.945312 93.148438 " clip-rule="nonzero"/></clipPath><clipPath id="c3edf56bc8"><path d="M 0.738281 0.675781 L 1 0.675781 L 1 2.351562 L 0.738281 2.351562 Z M 0.738281 0.675781 " clip-rule="nonzero"/></clipPath><clipPath id="ae0157602a"><path d="M 0.945312 2.148438 C 0.882812 2.148438 0.820312 2.148438 0.757812 2.148438 L 0.757812 0.753906 C 1.167969 1.164062 0.882812 1.703125 0.945312 2.148438 " clip-rule="nonzero"/></clipPath><clipPath id="00331ac368"><rect x="0" width="1" y="0" height="3"/></clipPath><clipPath id="48d748d759"><path d="M 67.53125 90.253906 L 68 90.253906 L 68 91.550781 L 67.53125 91.550781 Z M 67.53125 90.253906 " clip-rule="nonzero"/></clipPath><clipPath id="41be45140a"><path d="M 67.726562 90.550781 C 68.074219 90.742188 67.976562 90.960938 67.726562 91.152344 Z M 67.726562 90.550781 " clip-rule="nonzero"/></clipPath><clipPath id="a5e8513c9b"><path d="M 0.53125 0.480469 L 1 0.480469 L 1 1.195312 L 0.53125 1.195312 Z M 0.53125 0.480469 " clip-rule="nonzero"/></clipPath><clipPath id="4d034511a5"><path d="M 0.726562 0.550781 C 1.074219 0.742188 0.976562 0.960938 0.726562 1.152344 Z M 0.726562 0.550781 " clip-rule="nonzero"/></clipPath><clipPath id="90a34ac59a"><rect x="0" width="1" y="0" height="2"/></clipPath><clipPath id="2b00e2626c"><path d="M 67.53125 95.449219 L 68 95.449219 L 68 96.097656 L 67.53125 96.097656 Z M 67.53125 95.449219 " clip-rule="nonzero"/></clipPath><clipPath id="e19de943c0"><path d="M 67.726562 95.585938 C 67.914062 95.679688 67.914062 95.839844 67.882812 95.996094 C 67.820312 96.058594 67.757812 96.089844 67.726562 95.996094 Z M 67.726562 95.585938 " clip-rule="nonzero"/></clipPath><clipPath id="a573788c7a"><path d="M 0.53125 0.503906 L 0.980469 0.503906 L 0.980469 1.097656 L 0.53125 1.097656 Z M 0.53125 0.503906 " clip-rule="nonzero"/></clipPath><clipPath id="1ba9e97b6e"><path d="M 0.726562 0.585938 C 0.914062 0.679688 0.914062 0.839844 0.882812 0.996094 C 0.820312 1.058594 0.757812 1.089844 0.726562 0.996094 Z M 0.726562 0.585938 " clip-rule="nonzero"/></clipPath><clipPath id="bc0f69a3d1"><rect x="0" width="1" y="0" height="2"/></clipPath><clipPath id="b1301db3c4"><path d="M 67.53125 95.449219 L 68 95.449219 L 68 96.746094 L 67.53125 96.746094 Z M 67.53125 95.449219 " clip-rule="nonzero"/></clipPath><clipPath id="6f2a43df6a"><path d="M 67.726562 95.996094 C 67.789062 95.996094 67.851562 95.996094 67.882812 95.996094 C 67.882812 96.125 67.882812 96.25 67.882812 96.410156 C 67.820312 96.472656 67.757812 96.503906 67.726562 96.410156 Z M 67.726562 95.996094 " clip-rule="nonzero"/></clipPath><clipPath id="553e872f71"><path d="M 0.53125 0.984375 L 0.980469 0.984375 L 0.980469 1.703125 L 0.53125 1.703125 Z M 0.53125 0.984375 " clip-rule="nonzero"/></clipPath><clipPath id="a1b4aeaf1b"><path d="M 0.726562 0.996094 C 0.789062 0.996094 0.851562 0.996094 0.882812 0.996094 C 0.882812 1.125 0.882812 1.25 0.882812 1.410156 C 0.820312 1.472656 0.757812 1.503906 0.726562 1.410156 Z M 0.726562 0.996094 " clip-rule="nonzero"/></clipPath><clipPath id="49d0f69ad9"><rect x="0" width="1" y="0" height="2"/></clipPath><clipPath id="f490beaffc"><path d="M 67.53125 96.097656 L 68 96.097656 L 68 97 L 67.53125 97 Z M 67.53125 96.097656 " clip-rule="nonzero"/></clipPath><clipPath id="2f87580204"><path d="M 67.726562 96.375 C 67.789062 96.375 67.851562 96.375 67.882812 96.375 C 67.882812 96.503906 67.882812 96.628906 67.882812 96.789062 C 67.820312 96.882812 67.757812 96.882812 67.726562 96.789062 Z M 67.726562 96.375 " clip-rule="nonzero"/></clipPath><clipPath id="540c784fea"><path d="M 0.53125 0.222656 L 0.980469 0.222656 L 0.980469 0.941406 L 0.53125 0.941406 Z M 0.53125 0.222656 " clip-rule="nonzero"/></clipPath><clipPath id="c6d6ee8c15"><path d="M 0.726562 0.375 C 0.789062 0.375 0.851562 0.375 0.882812 0.375 C 0.882812 0.503906 0.882812 0.628906 0.882812 0.789062 C 0.820312 0.882812 0.757812 0.882812 0.726562 0.789062 Z M 0.726562 0.375 " clip-rule="nonzero"/></clipPath><clipPath id="ffb042b1ac"><rect x="0" width="1" y="0" height="1"/></clipPath><clipPath id="46890cbf6f"><path d="M 67.53125 96.746094 L 68 96.746094 L 68 97.394531 L 67.53125 97.394531 Z M 67.53125 96.746094 " clip-rule="nonzero"/></clipPath><clipPath id="0921b0bc2d"><path d="M 67.726562 96.789062 C 67.789062 96.789062 67.851562 96.789062 67.882812 96.789062 C 67.914062 96.945312 67.976562 97.136719 67.726562 97.167969 Z M 67.726562 96.789062 " clip-rule="nonzero"/></clipPath><clipPath id="dbd31a71a0"><path d="M 0.53125 0.746094 L 0.980469 0.746094 L 0.980469 1.179688 L 0.53125 1.179688 Z M 0.53125 0.746094 " clip-rule="nonzero"/></clipPath><clipPath id="a1a71a73a4"><path d="M 0.726562 0.789062 C 0.789062 0.789062 0.851562 0.789062 0.882812 0.789062 C 0.914062 0.945312 0.976562 1.136719 0.726562 1.167969 Z M 0.726562 0.789062 " clip-rule="nonzero"/></clipPath><clipPath id="48137fd724"><rect x="0" width="1" y="0" height="2"/></clipPath><clipPath id="5f07fb282f"><path d="M 69 43.5 L 170 43.5 L 170 144 L 69 144 Z M 69 43.5 " clip-rule="nonzero"/></clipPath><clipPath id="e4768e2d3d"><path d="M 169.707031 93.75 C 169.707031 121.453125 147.257812 143.902344 119.554688 143.902344 C 91.851562 143.902344 69.402344 121.453125 69.402344 93.75 C 69.402344 66.042969 91.851562 43.628906 119.554688 43.628906 C 147.257812 43.628906 169.707031 66.078125 169.707031 93.75 " clip-rule="nonzero"/></clipPath><clipPath id="c53d6ec157"><path d="M 0.175781 0.5625 L 100.945312 0.5625 L 100.945312 101 L 0.175781 101 Z M 0.175781 0.5625 " clip-rule="nonzero"/></clipPath><clipPath id="85b55ed33f"><path d="M 100.707031 50.75 C 100.707031 78.453125 78.257812 100.902344 50.554688 100.902344 C 22.851562 100.902344 0.402344 78.453125 0.402344 50.75 C 0.402344 23.042969 22.851562 0.628906 50.554688 0.628906 C 78.257812 0.628906 100.707031 23.078125 100.707031 50.75 " clip-rule="nonzero"/></clipPath><clipPath id="9bdf112cc1"><rect x="0" width="101" y="0" height="101"/></clipPath><clipPath id="3ee3033b84"><path d="M 67.53125 42 L 171.429688 42 L 171.429688 145.449219 L 67.53125 145.449219 Z M 67.53125 42 " clip-rule="nonzero"/></clipPath><clipPath id="605f4868e0"><path d="M 170.941406 86.847656 C 170.121094 80.070312 167.839844 73.800781 164.515625 67.882812 C 161.980469 63.449219 158.785156 59.523438 155.078125 56.007812 C 150.617188 51.765625 145.550781 48.472656 139.882812 46.066406 C 134.40625 43.753906 128.769531 42.265625 122.785156 42.109375 C 119.082031 42.011719 115.375 41.917969 111.734375 42.488281 C 101.570312 44.039062 92.609375 48.21875 84.949219 55.027344 C 79.121094 60.21875 74.40625 66.265625 70.921875 75.351562 C 70.257812 77.09375 69.65625 78.898438 69.179688 80.703125 C 68.421875 83.523438 67.976562 86.402344 67.757812 89.316406 L 67.757812 90.519531 C 67.914062 90.710938 67.914062 90.929688 67.757812 91.121094 L 67.757812 91.722656 C 67.976562 92.199219 67.820312 92.671875 67.851562 93.179688 C 67.789062 93.78125 67.976562 94.382812 67.757812 94.953125 L 67.757812 95.554688 C 67.882812 95.679688 67.851562 95.839844 67.851562 95.996094 L 67.851562 96.691406 C 67.851562 96.851562 67.882812 97.011719 67.757812 97.136719 L 67.757812 97.929688 C 68.007812 100.902344 68.421875 103.847656 69.179688 106.730469 C 71.902344 116.988281 77.222656 125.664062 85.203125 132.660156 C 92.292969 138.898438 100.558594 142.855469 109.867188 144.660156 C 111.703125 145.007812 113.601562 145.074219 115.4375 145.324219 L 116.261719 145.324219 C 116.292969 145.074219 116.484375 145.136719 116.640625 145.136719 C 116.863281 145.105469 117.117188 145.039062 117.277344 145.324219 L 118.480469 145.324219 C 119.082031 145.007812 119.683594 145.007812 120.316406 145.324219 L 121.519531 145.324219 C 121.738281 145.007812 122.054688 145.136719 122.339844 145.136719 C 122.5 145.105469 122.691406 145.074219 122.753906 145.324219 L 123.164062 145.324219 C 123.257812 145.230469 123.386719 145.230469 123.542969 145.230469 C 127.691406 145.261719 131.683594 144.3125 135.609375 143.046875 C 144.882812 140.007812 152.707031 134.78125 159.039062 127.375 C 165.242188 120.125 169.136719 111.796875 170.785156 102.425781 C 171.039062 100.9375 171.003906 99.417969 171.257812 97.960938 L 171.257812 97.167969 C 170.910156 97.042969 171.101562 96.789062 171.101562 96.566406 C 171.101562 96.34375 171.101562 96.15625 171.101562 95.964844 C 171.101562 95.773438 171.003906 95.488281 171.257812 95.332031 L 171.257812 92.164062 C 171.003906 92.007812 171.070312 91.785156 171.101562 91.5625 C 171.132812 91.34375 171.101562 91.152344 171.101562 90.960938 C 171.101562 90.773438 170.910156 90.488281 171.257812 90.390625 L 171.257812 89.789062 C 171.101562 88.839844 171.132812 87.859375 171.039062 86.910156 M 143.777344 52.175781 C 146.816406 54.109375 149.730469 56.199219 152.386719 58.636719 C 152.863281 59.078125 152.707031 59.207031 152.292969 59.554688 C 150.933594 60.660156 149.601562 61.011719 147.796875 60.566406 C 144.472656 59.777344 141.085938 59.175781 137.886719 57.9375 C 137.128906 57.652344 136.429688 57.621094 135.640625 57.84375 C 134.339844 58.222656 133.011719 58.414062 131.746094 58.855469 C 130.257812 59.394531 128.957031 59.078125 127.566406 58.539062 C 127.089844 58.351562 127.089844 58.191406 127.3125 57.84375 C 127.851562 56.800781 128.390625 55.753906 128.894531 54.710938 C 129.054688 54.363281 129.277344 54.234375 129.65625 54.234375 C 130.511719 54.265625 131.332031 54.234375 132.601562 54.234375 C 135.039062 54.867188 137.285156 53.378906 139.535156 52.082031 C 141.085938 51.195312 142.257812 51.195312 143.777344 52.175781 M 75.511719 73.898438 C 80.675781 62.878906 88.78125 54.835938 99.863281 49.769531 C 100.367188 49.546875 100.78125 49.484375 101.222656 49.867188 C 103.789062 52.144531 106.890625 52.9375 110.183594 53.285156 C 111.226562 53.378906 112.242188 53.632812 113.253906 53.792969 C 113.632812 53.855469 113.730469 53.980469 113.601562 54.363281 C 113.285156 55.597656 112.84375 56.640625 111.324219 56.863281 C 108.820312 57.210938 107.238281 58.667969 106.128906 60.914062 C 105.148438 62.910156 104.136719 65.0625 102.585938 66.613281 C 101.03125 68.164062 98.722656 68.894531 96.917969 70.222656 C 94.765625 71.808594 92.261719 71.773438 89.824219 72.1875 C 87.734375 72.535156 85.644531 72.757812 83.523438 73.074219 C 81.941406 73.296875 81.464844 73.863281 81.464844 75.511719 C 81.464844 76.808594 81.496094 78.140625 81.464844 79.4375 C 81.433594 80.324219 81.71875 81.082031 82.414062 81.652344 C 82.734375 81.90625 82.953125 82.253906 83.269531 82.507812 C 84.820312 83.617188 85.296875 85.074219 84.757812 87.035156 C 82.480469 85.515625 80.199219 84.027344 77.953125 82.507812 C 77.667969 82.320312 77.636719 82.003906 77.539062 81.71875 C 76.8125 79.5625 76.113281 77.410156 75.355469 75.257812 C 75.195312 74.785156 75.230469 74.402344 75.449219 73.929688 M 109.136719 116.609375 C 109.171875 116.863281 109.105469 117.148438 109.136719 117.433594 C 109.582031 119.710938 108.664062 121.199219 106.667969 122.308594 C 105.464844 122.972656 104.484375 123.953125 103.34375 124.746094 C 102.554688 125.316406 102.203125 125.980469 102.203125 126.960938 C 102.234375 128.765625 102.203125 130.601562 102.203125 132.40625 C 102.203125 132.441406 102.171875 132.472656 102.171875 132.566406 C 100.78125 132.40625 100.019531 131.773438 99.386719 130.414062 C 97.488281 126.390625 96.726562 122.277344 97.011719 117.875 C 97.203125 114.582031 97.042969 111.289062 97.042969 107.996094 C 97.042969 106.570312 96.664062 106.066406 95.269531 105.78125 C 93.085938 105.335938 90.933594 104.894531 88.75 104.480469 C 88.113281 104.355469 87.734375 104.101562 87.480469 103.53125 C 87.164062 102.773438 86.816406 101.980469 86.34375 101.285156 C 85.105469 99.417969 84.757812 97.359375 84.949219 95.140625 C 84.980469 94.730469 85.042969 94.382812 85.359375 94.066406 C 87.195312 92.261719 89.066406 90.425781 90.871094 88.585938 C 91.3125 88.113281 91.503906 88.207031 91.757812 88.746094 C 92.292969 89.917969 92.960938 91.058594 93.464844 92.261719 C 93.972656 93.402344 94.765625 93.8125 96 93.78125 C 99.164062 93.71875 102.332031 93.78125 105.496094 93.75 C 106.195312 93.75 106.574219 94.003906 106.890625 94.570312 C 108.15625 96.757812 109.519531 98.941406 110.816406 101.125 C 111.324219 102.011719 112.019531 102.425781 113.03125 102.390625 C 114.234375 102.359375 115.472656 102.425781 116.675781 102.359375 C 117.179688 102.359375 117.339844 102.488281 117.210938 102.992188 C 116.863281 104.703125 116.515625 106.414062 116.199219 108.125 C 116.136719 108.503906 115.851562 108.691406 115.597656 108.914062 C 113.730469 110.78125 111.863281 112.683594 109.960938 114.550781 C 109.359375 115.121094 109.042969 115.753906 109.105469 116.609375 M 157.519531 123.320312 C 150.109375 132.628906 140.671875 138.707031 128.957031 140.894531 C 110.976562 144.25 95.652344 139.023438 83.269531 125.570312 C 77 118.761719 73.296875 110.59375 71.777344 101.472656 C 70.574219 94.222656 71.050781 87.035156 73.265625 79.753906 C 73.675781 80.957031 74.058594 82.003906 74.375 83.078125 C 74.660156 84.09375 75.261719 84.820312 76.148438 85.390625 C 78.554688 86.910156 80.894531 88.554688 83.300781 90.109375 C 83.808594 90.457031 83.96875 90.675781 83.429688 91.089844 C 83.050781 91.40625 82.734375 91.816406 82.351562 92.132812 C 81.75 92.703125 81.464844 93.367188 81.464844 94.191406 C 81.496094 95.554688 81.464844 96.945312 81.464844 98.308594 C 81.464844 98.972656 81.625 99.574219 81.910156 100.144531 C 82.859375 102.042969 83.839844 103.878906 84.726562 105.8125 C 85.234375 106.921875 86.023438 107.425781 87.164062 107.617188 C 89.03125 107.933594 90.871094 108.34375 92.707031 108.691406 C 93.339844 108.820312 93.5625 109.042969 93.527344 109.738281 C 93.496094 114.425781 93.527344 119.140625 93.496094 123.859375 C 93.496094 124.617188 93.625 125.316406 93.910156 126.011719 C 94.921875 128.449219 95.902344 130.917969 96.855469 133.390625 C 97.203125 134.277344 97.738281 134.847656 98.660156 135.097656 C 100.113281 135.542969 101.507812 136.050781 102.964844 136.523438 C 104.546875 137.03125 105.5625 136.332031 105.59375 134.6875 C 105.625 132.503906 105.625 130.316406 105.59375 128.132812 C 105.5625 127.46875 105.8125 127.089844 106.320312 126.742188 C 108 125.539062 109.582031 124.269531 111.261719 123.066406 C 112.113281 122.433594 112.683594 121.675781 112.496094 120.597656 C 111.988281 117.8125 113.03125 115.722656 115.25 114.042969 C 116.355469 113.1875 117.242188 112.050781 118.289062 111.097656 C 118.984375 110.433594 119.398438 109.707031 119.554688 108.757812 C 120 106.351562 120.503906 103.945312 120.980469 101.570312 C 121.359375 99.699219 120.695312 98.941406 118.761719 98.941406 C 117.242188 98.941406 115.722656 98.910156 114.234375 98.941406 C 113.699219 98.941406 113.382812 98.75 113.128906 98.308594 C 111.796875 96.058594 110.4375 93.84375 109.105469 91.5625 C 108.601562 90.675781 107.933594 90.296875 106.890625 90.296875 C 103.660156 90.328125 100.429688 90.296875 97.203125 90.328125 C 96.570312 90.328125 96.253906 90.140625 96 89.570312 C 95.238281 87.953125 94.414062 86.371094 93.625 84.789062 C 92.832031 83.207031 91.628906 82.984375 90.332031 84.25 C 89.761719 84.820312 89.222656 85.453125 88.621094 86.117188 C 88.464844 85.832031 88.398438 85.769531 88.429688 85.738281 C 88.90625 83.363281 87.828125 81.621094 85.992188 80.324219 C 84.632812 79.34375 85.011719 77.980469 84.980469 76.683594 C 84.980469 76.175781 85.421875 76.269531 85.742188 76.238281 C 88.84375 75.796875 91.914062 75.351562 95.015625 74.910156 C 95.652344 74.816406 96.253906 74.59375 96.789062 74.246094 C 99.292969 72.726562 101.792969 71.238281 104.324219 69.75 C 104.925781 69.402344 105.371094 68.957031 105.71875 68.355469 C 107.082031 66.042969 108.503906 63.765625 109.867188 61.453125 C 110.152344 60.980469 110.46875 60.695312 110.976562 60.535156 C 112.144531 60.1875 113.285156 59.808594 114.425781 59.425781 C 115.25 59.175781 115.789062 58.667969 116.039062 57.8125 C 116.484375 56.324219 117.023438 54.898438 117.496094 53.410156 C 118.003906 51.890625 117.496094 51.003906 115.882812 50.75 C 113.222656 50.277344 110.59375 49.832031 107.933594 49.421875 C 106.730469 49.230469 105.65625 48.914062 104.675781 47.933594 C 115.789062 44.484375 126.679688 44.894531 137.730469 49.199219 C 136.144531 49.769531 135.070312 50.816406 133.488281 50.785156 C 131.777344 50.71875 130.066406 50.785156 128.324219 50.75 C 127.375 50.71875 126.742188 51.132812 126.332031 51.988281 C 125.285156 54.109375 124.242188 56.167969 123.195312 58.289062 C 122.53125 59.679688 122.941406 60.566406 124.398438 61.105469 C 124.429688 61.105469 124.460938 61.105469 124.496094 61.136719 C 128.070312 63.003906 131.714844 62.847656 135.355469 61.453125 C 136.175781 61.136719 136.96875 61.199219 137.792969 61.515625 C 141.71875 63.101562 145.929688 63.542969 150.015625 64.460938 C 150.648438 64.589844 151.183594 64.367188 151.722656 64.019531 C 152.769531 63.320312 153.78125 62.65625 154.828125 61.929688 C 155.144531 61.707031 155.332031 61.644531 155.648438 61.992188 C 157.390625 64.050781 159.007812 66.171875 160.460938 68.515625 C 157.675781 69.433594 154.984375 70.414062 152.230469 71.238281 C 151.3125 71.523438 150.332031 71.015625 149.347656 70.890625 C 147.417969 70.605469 145.519531 70.222656 143.585938 69.9375 C 143.078125 69.875 142.730469 69.652344 142.445312 69.210938 C 141.65625 67.976562 140.800781 66.773438 140.007812 65.507812 C 139.535156 64.808594 138.964844 64.460938 138.078125 64.460938 C 134.878906 64.492188 131.683594 64.492188 128.484375 64.460938 C 127.722656 64.460938 127.121094 64.683594 126.585938 65.222656 C 125.03125 66.773438 123.511719 68.324219 121.929688 69.84375 C 121.359375 70.414062 121.105469 71.046875 121.203125 71.839844 C 121.773438 75.765625 122.308594 79.691406 122.878906 83.585938 C 122.976562 84.25 123.417969 84.726562 124.019531 85.011719 C 127.945312 86.6875 131.839844 88.367188 135.765625 90.042969 C 136.273438 90.265625 136.777344 90.296875 137.347656 90.140625 C 138.964844 89.695312 140.609375 89.316406 142.226562 88.90625 C 142.445312 88.839844 142.699219 88.714844 142.921875 88.746094 C 144.410156 89.0625 145.390625 90.265625 146.65625 90.960938 C 147.195312 91.246094 147.039062 91.816406 146.972656 92.230469 C 146.5625 95.902344 147.480469 99.195312 149.347656 102.390625 C 150.867188 104.957031 152.039062 107.710938 153.402344 110.371094 C 153.75 111.035156 153.910156 111.734375 153.875 112.492188 C 153.84375 114.105469 153.875 115.722656 153.84375 117.335938 C 153.8125 118.160156 154.097656 118.824219 154.699219 119.394531 C 155.617188 120.25 156.441406 121.167969 157.359375 122.023438 C 157.835938 122.464844 157.898438 122.75 157.453125 123.289062 M 167.585938 95.457031 C 167.269531 104.101562 164.769531 112.113281 160.113281 119.457031 C 160.050781 119.554688 159.957031 119.585938 159.796875 119.742188 C 159.070312 118.984375 158.371094 118.222656 157.644531 117.496094 C 157.296875 117.179688 157.296875 116.796875 157.296875 116.386719 C 157.296875 114.804688 157.296875 113.222656 157.296875 111.667969 C 157.296875 110.910156 157.136719 110.214844 156.789062 109.546875 C 154.792969 105.558594 152.800781 101.570312 150.804688 97.613281 C 150.519531 97.042969 150.394531 96.503906 150.394531 95.871094 C 150.425781 94.191406 150.363281 92.515625 150.425781 90.835938 C 150.457031 89.824219 150.109375 89.125 149.222656 88.585938 C 147.765625 87.667969 146.339844 86.71875 144.949219 85.738281 C 144.15625 85.199219 143.363281 85.074219 142.476562 85.328125 C 140.832031 85.769531 139.152344 86.148438 137.507812 86.59375 C 137 86.71875 136.527344 86.6875 136.050781 86.464844 C 132.980469 85.136719 129.910156 83.808594 126.804688 82.507812 C 126.265625 82.289062 126.078125 82.003906 126.015625 81.433594 C 125.632812 78.519531 125.222656 75.574219 124.746094 72.660156 C 124.683594 72.15625 124.78125 71.839844 125.128906 71.523438 C 126.203125 70.507812 127.25 69.464844 128.261719 68.386719 C 128.578125 68.039062 128.925781 67.914062 129.402344 67.914062 C 131.808594 67.945312 134.246094 67.945312 136.652344 67.914062 C 137.253906 67.914062 137.570312 68.132812 137.855469 68.578125 C 138.585938 69.71875 139.34375 70.792969 140.070312 71.933594 C 140.546875 72.660156 141.179688 73.042969 142.035156 73.167969 C 145.105469 73.644531 148.210938 74.183594 151.28125 74.71875 C 151.976562 74.847656 152.609375 74.75 153.242188 74.53125 C 155.933594 73.613281 158.65625 72.726562 161.347656 71.808594 C 161.949219 71.585938 162.234375 71.710938 162.550781 72.3125 C 166.160156 79.628906 167.871094 87.351562 167.554688 95.457031 " clip-rule="nonzero"/></clipPath><clipPath id="b0e9ffe327"><path d="M 0.738281 0 L 104.382812 0 L 104.382812 103.449219 L 0.738281 103.449219 Z M 0.738281 0 " clip-rule="nonzero"/></clipPath><clipPath id="e2a1f16a07"><path d="M 103.941406 44.847656 C 103.121094 38.070312 100.839844 31.800781 97.515625 25.882812 C 94.980469 21.449219 91.785156 17.523438 88.078125 14.007812 C 83.617188 9.765625 78.550781 6.472656 72.882812 4.066406 C 67.40625 1.753906 61.769531 0.265625 55.785156 0.109375 C 52.082031 0.0117188 48.375 -0.0820312 44.734375 0.488281 C 34.570312 2.039062 25.609375 6.21875 17.949219 13.027344 C 12.121094 18.21875 7.40625 24.265625 3.921875 33.351562 C 3.257812 35.09375 2.65625 36.898438 2.179688 38.703125 C 1.421875 41.523438 0.976562 44.402344 0.757812 47.316406 L 0.757812 48.519531 C 0.914062 48.710938 0.914062 48.929688 0.757812 49.121094 L 0.757812 49.722656 C 0.976562 50.199219 0.820312 50.671875 0.851562 51.179688 C 0.789062 51.78125 0.976562 52.382812 0.757812 52.953125 L 0.757812 53.554688 C 0.882812 53.679688 0.851562 53.839844 0.851562 53.996094 L 0.851562 54.691406 C 0.851562 54.851562 0.882812 55.011719 0.757812 55.136719 L 0.757812 55.929688 C 1.007812 58.902344 1.421875 61.847656 2.179688 64.730469 C 4.902344 74.988281 10.222656 83.664062 18.203125 90.660156 C 25.292969 96.898438 33.558594 100.855469 42.867188 102.660156 C 44.703125 103.007812 46.601562 103.074219 48.4375 103.324219 L 49.261719 103.324219 C 49.292969 103.074219 49.484375 103.136719 49.640625 103.136719 C 49.863281 103.105469 50.117188 103.039062 50.277344 103.324219 L 51.480469 103.324219 C 52.082031 103.007812 52.683594 103.007812 53.316406 103.324219 L 54.519531 103.324219 C 54.738281 103.007812 55.054688 103.136719 55.339844 103.136719 C 55.5 103.105469 55.691406 103.074219 55.753906 103.324219 L 56.164062 103.324219 C 56.257812 103.230469 56.386719 103.230469 56.542969 103.230469 C 60.691406 103.261719 64.683594 102.3125 68.609375 101.046875 C 77.882812 98.007812 85.707031 92.78125 92.039062 85.375 C 98.242188 78.125 102.136719 69.796875 103.785156 60.425781 C 104.039062 58.9375 104.003906 57.417969 104.257812 55.960938 L 104.257812 55.167969 C 103.910156 55.042969 104.101562 54.789062 104.101562 54.566406 C 104.101562 54.34375 104.101562 54.15625 104.101562 53.964844 C 104.101562 53.773438 104.003906 53.488281 104.257812 53.332031 L 104.257812 50.164062 C 104.003906 50.007812 104.070312 49.785156 104.101562 49.5625 C 104.132812 49.34375 104.101562 49.152344 104.101562 48.960938 C 104.101562 48.773438 103.910156 48.488281 104.257812 48.390625 L 104.257812 47.789062 C 104.101562 46.839844 104.132812 45.859375 104.039062 44.910156 M 76.777344 10.175781 C 79.816406 12.109375 82.730469 14.199219 85.386719 16.636719 C 85.863281 17.078125 85.707031 17.207031 85.292969 17.554688 C 83.933594 18.660156 82.601562 19.011719 80.796875 18.566406 C 77.472656 17.777344 74.085938 17.175781 70.886719 15.9375 C 70.128906 15.652344 69.429688 15.621094 68.640625 15.84375 C 67.339844 16.222656 66.011719 16.414062 64.746094 16.855469 C 63.257812 17.394531 61.957031 17.078125 60.566406 16.539062 C 60.089844 16.351562 60.089844 16.191406 60.3125 15.84375 C 60.851562 14.800781 61.390625 13.753906 61.894531 12.710938 C 62.054688 12.363281 62.277344 12.234375 62.65625 12.234375 C 63.511719 12.265625 64.332031 12.234375 65.601562 12.234375 C 68.039062 12.867188 70.285156 11.378906 72.535156 10.082031 C 74.085938 9.195312 75.257812 9.195312 76.777344 10.175781 M 8.511719 31.898438 C 13.675781 20.878906 21.78125 12.835938 32.863281 7.769531 C 33.367188 7.546875 33.78125 7.484375 34.222656 7.867188 C 36.789062 10.144531 39.890625 10.9375 43.183594 11.285156 C 44.226562 11.378906 45.242188 11.632812 46.253906 11.792969 C 46.632812 11.855469 46.730469 11.980469 46.601562 12.363281 C 46.285156 13.597656 45.84375 14.640625 44.324219 14.863281 C 41.820312 15.210938 40.238281 16.667969 39.128906 18.914062 C 38.148438 20.910156 37.136719 23.0625 35.585938 24.613281 C 34.03125 26.164062 31.722656 26.894531 29.917969 28.222656 C 27.765625 29.808594 25.261719 29.773438 22.824219 30.1875 C 20.734375 30.535156 18.644531 30.757812 16.523438 31.074219 C 14.941406 31.296875 14.464844 31.863281 14.464844 33.511719 C 14.464844 34.808594 14.496094 36.140625 14.464844 37.4375 C 14.433594 38.324219 14.71875 39.082031 15.414062 39.652344 C 15.734375 39.90625 15.953125 40.253906 16.269531 40.507812 C 17.820312 41.617188 18.296875 43.074219 17.757812 45.035156 C 15.480469 43.515625 13.199219 42.027344 10.953125 40.507812 C 10.667969 40.320312 10.636719 40.003906 10.539062 39.71875 C 9.8125 37.5625 9.113281 35.410156 8.355469 33.257812 C 8.195312 32.785156 8.230469 32.402344 8.449219 31.929688 M 42.136719 74.609375 C 42.171875 74.863281 42.105469 75.148438 42.136719 75.433594 C 42.582031 77.710938 41.664062 79.199219 39.667969 80.308594 C 38.464844 80.972656 37.484375 81.953125 36.34375 82.746094 C 35.554688 83.316406 35.203125 83.980469 35.203125 84.960938 C 35.234375 86.765625 35.203125 88.601562 35.203125 90.40625 C 35.203125 90.441406 35.171875 90.472656 35.171875 90.566406 C 33.78125 90.40625 33.019531 89.773438 32.386719 88.414062 C 30.488281 84.390625 29.726562 80.277344 30.011719 75.875 C 30.203125 72.582031 30.042969 69.289062 30.042969 65.996094 C 30.042969 64.570312 29.664062 64.066406 28.269531 63.78125 C 26.085938 63.335938 23.933594 62.894531 21.75 62.480469 C 21.113281 62.355469 20.734375 62.101562 20.480469 61.53125 C 20.164062 60.773438 19.816406 59.980469 19.34375 59.285156 C 18.105469 57.417969 17.757812 55.359375 17.949219 53.140625 C 17.980469 52.730469 18.042969 52.382812 18.359375 52.066406 C 20.195312 50.261719 22.066406 48.425781 23.871094 46.585938 C 24.3125 46.113281 24.503906 46.207031 24.757812 46.746094 C 25.292969 47.917969 25.960938 49.058594 26.464844 50.261719 C 26.972656 51.402344 27.765625 51.8125 29 51.78125 C 32.164062 51.71875 35.332031 51.78125 38.496094 51.75 C 39.195312 51.75 39.574219 52.003906 39.890625 52.570312 C 41.15625 54.757812 42.519531 56.941406 43.816406 59.125 C 44.324219 60.011719 45.019531 60.425781 46.03125 60.390625 C 47.234375 60.359375 48.472656 60.425781 49.675781 60.359375 C 50.179688 60.359375 50.339844 60.488281 50.210938 60.992188 C 49.863281 62.703125 49.515625 64.414062 49.199219 66.125 C 49.136719 66.503906 48.851562 66.691406 48.597656 66.914062 C 46.730469 68.78125 44.863281 70.683594 42.960938 72.550781 C 42.359375 73.121094 42.042969 73.753906 42.105469 74.609375 M 90.519531 81.320312 C 83.109375 90.628906 73.671875 96.707031 61.957031 98.894531 C 43.976562 102.25 28.652344 97.023438 16.269531 83.570312 C 10 76.761719 6.296875 68.59375 4.777344 59.472656 C 3.574219 52.222656 4.050781 45.035156 6.265625 37.753906 C 6.675781 38.957031 7.058594 40.003906 7.375 41.078125 C 7.660156 42.09375 8.261719 42.820312 9.148438 43.390625 C 11.554688 44.910156 13.894531 46.554688 16.300781 48.109375 C 16.808594 48.457031 16.96875 48.675781 16.429688 49.089844 C 16.050781 49.40625 15.734375 49.816406 15.351562 50.132812 C 14.75 50.703125 14.464844 51.367188 14.464844 52.191406 C 14.496094 53.554688 14.464844 54.945312 14.464844 56.308594 C 14.464844 56.972656 14.625 57.574219 14.910156 58.144531 C 15.859375 60.042969 16.839844 61.878906 17.726562 63.8125 C 18.234375 64.921875 19.023438 65.425781 20.164062 65.617188 C 22.03125 65.933594 23.871094 66.34375 25.707031 66.691406 C 26.339844 66.820312 26.5625 67.042969 26.527344 67.738281 C 26.496094 72.425781 26.527344 77.140625 26.496094 81.859375 C 26.496094 82.617188 26.625 83.316406 26.910156 84.011719 C 27.921875 86.449219 28.902344 88.917969 29.855469 91.390625 C 30.203125 92.277344 30.738281 92.847656 31.660156 93.097656 C 33.113281 93.542969 34.507812 94.050781 35.964844 94.523438 C 37.546875 95.03125 38.5625 94.332031 38.59375 92.6875 C 38.625 90.503906 38.625 88.316406 38.59375 86.132812 C 38.5625 85.46875 38.8125 85.089844 39.320312 84.742188 C 41 83.539062 42.582031 82.269531 44.261719 81.066406 C 45.113281 80.433594 45.683594 79.675781 45.496094 78.597656 C 44.988281 75.8125 46.03125 73.722656 48.25 72.042969 C 49.355469 71.1875 50.242188 70.050781 51.289062 69.097656 C 51.984375 68.433594 52.398438 67.707031 52.554688 66.757812 C 53 64.351562 53.503906 61.945312 53.980469 59.570312 C 54.359375 57.699219 53.695312 56.941406 51.761719 56.941406 C 50.242188 56.941406 48.722656 56.910156 47.234375 56.941406 C 46.699219 56.941406 46.382812 56.75 46.128906 56.308594 C 44.796875 54.058594 43.4375 51.84375 42.105469 49.5625 C 41.601562 48.675781 40.933594 48.296875 39.890625 48.296875 C 36.660156 48.328125 33.429688 48.296875 30.203125 48.328125 C 29.570312 48.328125 29.253906 48.140625 29 47.570312 C 28.238281 45.953125 27.414062 44.371094 26.625 42.789062 C 25.832031 41.207031 24.628906 40.984375 23.332031 42.25 C 22.761719 42.820312 22.222656 43.453125 21.621094 44.117188 C 21.464844 43.832031 21.398438 43.769531 21.429688 43.738281 C 21.90625 41.363281 20.828125 39.621094 18.992188 38.324219 C 17.632812 37.34375 18.011719 35.980469 17.980469 34.683594 C 17.980469 34.175781 18.421875 34.269531 18.742188 34.238281 C 21.84375 33.796875 24.914062 33.351562 28.015625 32.910156 C 28.652344 32.816406 29.253906 32.59375 29.789062 32.246094 C 32.292969 30.726562 34.792969 29.238281 37.324219 27.75 C 37.925781 27.402344 38.371094 26.957031 38.71875 26.355469 C 40.082031 24.042969 41.503906 21.765625 42.867188 19.453125 C 43.152344 18.980469 43.46875 18.695312 43.976562 18.535156 C 45.144531 18.1875 46.285156 17.808594 47.425781 17.425781 C 48.25 17.175781 48.789062 16.667969 49.039062 15.8125 C 49.484375 14.324219 50.023438 12.898438 50.496094 11.410156 C 51.003906 9.890625 50.496094 9.003906 48.882812 8.75 C 46.222656 8.277344 43.59375 7.832031 40.933594 7.421875 C 39.730469 7.230469 38.65625 6.914062 37.675781 5.933594 C 48.789062 2.484375 59.679688 2.894531 70.730469 7.199219 C 69.144531 7.769531 68.070312 8.816406 66.488281 8.785156 C 64.777344 8.71875 63.066406 8.785156 61.324219 8.75 C 60.375 8.71875 59.742188 9.132812 59.332031 9.988281 C 58.285156 12.109375 57.242188 14.167969 56.195312 16.289062 C 55.53125 17.679688 55.941406 18.566406 57.398438 19.105469 C 57.429688 19.105469 57.460938 19.105469 57.496094 19.136719 C 61.070312 21.003906 64.714844 20.847656 68.355469 19.453125 C 69.175781 19.136719 69.96875 19.199219 70.792969 19.515625 C 74.71875 21.101562 78.929688 21.542969 83.015625 22.460938 C 83.648438 22.589844 84.183594 22.367188 84.722656 22.019531 C 85.769531 21.320312 86.78125 20.65625 87.828125 19.929688 C 88.144531 19.707031 88.332031 19.644531 88.648438 19.992188 C 90.390625 22.050781 92.007812 24.171875 93.460938 26.515625 C 90.675781 27.433594 87.984375 28.414062 85.230469 29.238281 C 84.3125 29.523438 83.332031 29.015625 82.347656 28.890625 C 80.417969 28.605469 78.519531 28.222656 76.585938 27.9375 C 76.078125 27.875 75.730469 27.652344 75.445312 27.210938 C 74.65625 25.976562 73.800781 24.773438 73.007812 23.507812 C 72.535156 22.808594 71.964844 22.460938 71.078125 22.460938 C 67.878906 22.492188 64.683594 22.492188 61.484375 22.460938 C 60.722656 22.460938 60.121094 22.683594 59.585938 23.222656 C 58.03125 24.773438 56.511719 26.324219 54.929688 27.84375 C 54.359375 28.414062 54.105469 29.046875 54.203125 29.839844 C 54.773438 33.765625 55.308594 37.691406 55.878906 41.585938 C 55.976562 42.25 56.417969 42.726562 57.019531 43.011719 C 60.945312 44.6875 64.839844 46.367188 68.765625 48.042969 C 69.273438 48.265625 69.777344 48.296875 70.347656 48.140625 C 71.964844 47.695312 73.609375 47.316406 75.226562 46.90625 C 75.445312 46.839844 75.699219 46.714844 75.921875 46.746094 C 77.410156 47.0625 78.390625 48.265625 79.65625 48.960938 C 80.195312 49.246094 80.039062 49.816406 79.972656 50.230469 C 79.5625 53.902344 80.480469 57.195312 82.347656 60.390625 C 83.867188 62.957031 85.039062 65.710938 86.402344 68.371094 C 86.75 69.035156 86.910156 69.734375 86.875 70.492188 C 86.84375 72.105469 86.875 73.722656 86.84375 75.335938 C 86.8125 76.160156 87.097656 76.824219 87.699219 77.394531 C 88.617188 78.25 89.441406 79.167969 90.359375 80.023438 C 90.835938 80.464844 90.898438 80.75 90.453125 81.289062 M 100.585938 53.457031 C 100.269531 62.101562 97.769531 70.113281 93.113281 77.457031 C 93.050781 77.554688 92.957031 77.585938 92.796875 77.742188 C 92.070312 76.984375 91.371094 76.222656 90.644531 75.496094 C 90.296875 75.179688 90.296875 74.796875 90.296875 74.386719 C 90.296875 72.804688 90.296875 71.222656 90.296875 69.667969 C 90.296875 68.910156 90.136719 68.214844 89.789062 67.546875 C 87.792969 63.558594 85.800781 59.570312 83.804688 55.613281 C 83.519531 55.042969 83.394531 54.503906 83.394531 53.871094 C 83.425781 52.191406 83.363281 50.515625 83.425781 48.835938 C 83.457031 47.824219 83.109375 47.125 82.222656 46.585938 C 80.765625 45.667969 79.339844 44.71875 77.949219 43.738281 C 77.15625 43.199219 76.363281 43.074219 75.476562 43.328125 C 73.832031 43.769531 72.152344 44.148438 70.507812 44.59375 C 70 44.71875 69.527344 44.6875 69.050781 44.464844 C 65.980469 43.136719 62.910156 41.808594 59.804688 40.507812 C 59.265625 40.289062 59.078125 40.003906 59.015625 39.433594 C 58.632812 36.519531 58.222656 33.574219 57.746094 30.660156 C 57.683594 30.15625 57.78125 29.839844 58.128906 29.523438 C 59.203125 28.507812 60.25 27.464844 61.261719 26.386719 C 61.578125 26.039062 61.925781 25.914062 62.402344 25.914062 C 64.808594 25.945312 67.246094 25.945312 69.652344 25.914062 C 70.253906 25.914062 70.570312 26.132812 70.855469 26.578125 C 71.585938 27.71875 72.34375 28.792969 73.070312 29.933594 C 73.546875 30.660156 74.179688 31.042969 75.035156 31.167969 C 78.105469 31.644531 81.210938 32.183594 84.28125 32.71875 C 84.976562 32.847656 85.609375 32.75 86.242188 32.53125 C 88.933594 31.613281 91.65625 30.726562 94.347656 29.808594 C 94.949219 29.585938 95.234375 29.710938 95.550781 30.3125 C 99.160156 37.628906 100.871094 45.351562 100.554688 53.457031 " clip-rule="nonzero"/></clipPath><clipPath id="31f5ed28fd"><rect x="0" width="105" y="0" height="104"/></clipPath></defs><g clip-path="url(#87db091d41)"><g clip-path="url(#e06283b474)"><g transform="matrix(1, 0, 0, 1, 15, 26)"><g clip-path="url(#1e4dbf3031)"><g clip-path="url(#0d849227fd)"><g clip-path="url(#4fb023b041)"><rect x="-56.25" width="270" fill="#fe8db1" height="269.999988" y="-67.249998" fill-opacity="1"/></g></g></g></g></g></g><g clip-path="url(#2d11a8ea49)"><g clip-path="url(#f4d915034f)"><g transform="matrix(1, 0, 0, 1, 67, 93)"><g clip-path="url(#e8b00917ac)"><g clip-path="url(#fbc53fc0cb)"><g clip-path="url(#4194f5e664)"><rect x="-108.25" width="270" fill="#4b4b4b" height="269.999988" y="-134.249998" fill-opacity="1"/></g></g></g></g></g></g><g clip-path="url(#8fe2710b57)"><g clip-path="url(#b484e8ff94)"><g transform="matrix(1, 0, 0, 1, 67, 91)"><g clip-path="url(#00331ac368)"><g clip-path="url(#c3edf56bc8)"><g clip-path="url(#ae0157602a)"><rect x="-108.25" width="270" fill="#4b4b4b" height="269.999988" y="-132.249998" fill-opacity="1"/></g></g></g></g></g></g><g clip-path="url(#48d748d759)"><g clip-path="url(#41be45140a)"><g transform="matrix(1, 0, 0, 1, 67, 90)"><g clip-path="url(#90a34ac59a)"><g clip-path="url(#a5e8513c9b)"><g clip-path="url(#4d034511a5)"><rect x="-108.25" width="270" fill="#4b4b4b" height="269.999988" y="-131.249998" fill-opacity="1"/></g></g></g></g></g></g><g clip-path="url(#2b00e2626c)"><g clip-path="url(#e19de943c0)"><g transform="matrix(1, 0, 0, 1, 67, 95)"><g clip-path="url(#bc0f69a3d1)"><g clip-path="url(#a573788c7a)"><g clip-path="url(#1ba9e97b6e)"><rect x="-108.25" width="270" fill="#4b4b4b" height="269.999988" y="-136.249998" fill-opacity="1"/></g></g></g></g></g></g><g clip-path="url(#b1301db3c4)"><g clip-path="url(#6f2a43df6a)"><g transform="matrix(1, 0, 0, 1, 67, 95)"><g clip-path="url(#49d0f69ad9)"><g clip-path="url(#553e872f71)"><g clip-path="url(#a1b4aeaf1b)"><rect x="-108.25" width="270" fill="#4b4b4b" height="269.999988" y="-136.249998" fill-opacity="1"/></g></g></g></g></g></g><g clip-path="url(#f490beaffc)"><g clip-path="url(#2f87580204)"><g transform="matrix(1, 0, 0, 1, 67, 96)"><g clip-path="url(#ffb042b1ac)"><g clip-path="url(#540c784fea)"><g clip-path="url(#c6d6ee8c15)"><rect x="-108.25" width="270" fill="#4b4b4b" height="269.999988" y="-137.249998" fill-opacity="1"/></g></g></g></g></g></g><g clip-path="url(#46890cbf6f)"><g clip-path="url(#0921b0bc2d)"><g transform="matrix(1, 0, 0, 1, 67, 96)"><g clip-path="url(#48137fd724)"><g clip-path="url(#dbd31a71a0)"><g clip-path="url(#a1a71a73a4)"><rect x="-108.25" width="270" fill="#4b4b4b" height="269.999988" y="-137.249998" fill-opacity="1"/></g></g></g></g></g></g><g clip-path="url(#5f07fb282f)"><g clip-path="url(#e4768e2d3d)"><g transform="matrix(1, 0, 0, 1, 69, 43)"><g clip-path="url(#9bdf112cc1)"><g clip-path="url(#c53d6ec157)"><g clip-path="url(#85b55ed33f)"><rect x="-110.25" width="270" fill="#ffffff" height="269.999988" y="-84.249998" fill-opacity="1"/></g></g></g></g></g></g><g clip-path="url(#3ee3033b84)"><g clip-path="url(#605f4868e0)"><g transform="matrix(1, 0, 0, 1, 67, 42)"><g clip-path="url(#31f5ed28fd)"><g clip-path="url(#b0e9ffe327)"><g clip-path="url(#e2a1f16a07)"><rect x="-108.25" width="270" fill="#4b4b4b" height="269.999988" y="-83.249998" fill-opacity="1"/></g></g></g></g></g></g></svg>
